<?xml version="1.0" encoding="UTF-8"?>
<svg xmlns="http://www.w3.org/2000/svg" viewBox="402.4 338.9 558.7 558.7" width="512" height="512">
  <title>Parallax Data</title>
  <path d="M 868.7,532.1 L 773.0,586.7 L 764.9,524.3 L 730.5,608.4 L 559.4,614.0 L 705.7,639.9 L 631.1,723.5 L 714.0,674.7 L 725.8,738.4 L 768.1,654.1 L 872.9,632.7 L 789.7,616.7 Z" fill="#000000"/>
  <path d="M 871.8,528.3 L 773.1,584.6 L 764.8,520.3 L 729.3,607.0 L 552.9,612.7 L 703.7,639.4 L 626.8,725.6 L 712.3,675.3 L 724.4,741.0 L 768.1,654.1 L 876.1,632.0 L 790.4,615.5 Z" fill="#000000"/>
  <path d="M 875.0,524.4 L 773.2,582.5 L 764.6,516.1 L 728.1,605.5 L 546.3,611.4 L 701.7,639.0 L 622.4,727.8 L 710.5,676.0 L 723.1,743.6 L 768.1,654.1 L 879.5,631.3 L 791.1,614.3 Z" fill="#000000"/>
  <path d="M 878.3,520.4 L 773.4,580.3 L 764.6,511.9 L 726.9,604.0 L 539.4,610.1 L 699.6,638.5 L 618.0,730.1 L 708.8,676.6 L 721.7,746.4 L 768.1,654.1 L 882.9,630.6 L 791.8,613.1 Z" fill="#000000"/>
  <path d="M 881.7,516.3 L 773.6,578.0 L 764.5,507.5 L 725.6,602.5 L 532.4,608.8 L 697.6,638.1 L 613.3,732.5 L 707.0,677.4 L 720.3,749.3 L 768.1,654.1 L 886.5,629.9 L 792.6,611.9 Z" fill="#000000"/>
  <path d="M 885.3,512.1 L 773.9,575.7 L 764.4,503.0 L 724.4,601.0 L 525.2,607.4 L 695.4,637.6 L 608.6,735.0 L 705.1,678.2 L 718.9,752.3 L 768.2,654.2 L 890.2,629.2 L 793.4,610.7 Z" fill="#000000"/>
  <path d="M 889.0,507.7 L 774.1,573.4 L 764.4,498.4 L 723.1,599.4 L 517.7,606.1 L 693.3,637.2 L 603.8,737.5 L 703.3,679.0 L 717.4,755.4 L 768.3,654.3 L 894.1,628.5 L 794.2,609.4 Z" fill="#000000"/>
  <path d="M 892.9,503.3 L 774.4,571.0 L 764.4,493.7 L 721.8,597.8 L 510.1,604.7 L 691.1,636.8 L 598.8,740.2 L 701.4,679.9 L 716.0,758.7 L 768.4,654.4 L 898.1,627.9 L 795.1,608.1 Z" fill="#000000"/>
  <path d="M 896.8,498.8 L 774.7,568.5 L 764.4,488.9 L 720.5,596.2 L 502.2,603.3 L 688.8,636.4 L 593.7,743.0 L 699.4,680.8 L 714.5,762.0 L 768.5,654.5 L 902.2,627.2 L 796.1,606.8 Z" fill="#000000"/>
  <path d="M 901.0,494.1 L 775.1,566.1 L 764.4,484.0 L 719.2,594.6 L 494.2,601.9 L 686.5,636.0 L 588.4,745.9 L 697.5,681.8 L 713.0,765.5 L 768.7,654.7 L 906.5,626.5 L 797.1,605.5 Z" fill="#000000"/>
  <path d="M 905.3,489.4 L 775.5,563.5 L 764.5,478.9 L 717.9,592.9 L 485.9,600.4 L 684.2,635.6 L 583.1,748.9 L 695.5,682.8 L 711.4,769.2 L 768.9,654.9 L 911.0,625.8 L 798.2,604.2 Z" fill="#000000"/>
  <path d="M 909.7,484.5 L 775.9,560.9 L 764.6,473.6 L 716.5,591.2 L 477.4,599.0 L 681.8,635.2 L 577.5,752.1 L 693.4,683.9 L 709.9,772.9 L 769.1,655.1 L 915.6,625.1 L 799.3,602.8 Z" fill="#000000"/>
  <path d="M 914.3,479.5 L 776.4,558.3 L 764.7,468.3 L 715.1,589.5 L 468.6,597.5 L 679.3,634.9 L 571.9,755.3 L 691.3,685.0 L 708.3,776.8 L 769.4,655.4 L 920.4,624.5 L 800.5,601.5 Z" fill="#000000"/>
  <path d="M 919.1,474.3 L 776.9,555.5 L 764.9,462.8 L 713.8,587.7 L 459.6,596.0 L 676.8,634.5 L 566.1,758.7 L 689.2,686.2 L 706.7,780.9 L 769.7,655.7 L 925.3,623.8 L 801.8,600.1 Z" fill="#000000"/>
  <path d="M 924.0,469.0 L 777.4,552.8 L 765.0,457.1 L 712.3,586.0 L 450.3,594.5 L 674.3,634.2 L 560.1,762.2 L 687.0,687.5 L 705.1,785.1 L 770.0,656.0 L 930.5,623.1 L 803.1,598.7 Z" fill="#000000"/>
  <path d="M 929.1,463.6 L 778.0,549.9 L 765.2,451.3 L 710.9,584.1 L 440.8,592.9 L 671.7,633.9 L 553.9,765.9 L 684.8,688.8 L 703.4,789.4 L 770.3,656.3 L 935.8,622.5 L 804.5,597.3 Z" fill="#000000"/>
  <path d="M 934.4,458.0 L 778.6,547.0 L 765.5,445.4 L 709.5,582.3 L 431.0,591.3 L 669.0,633.6 L 547.6,769.6 L 682.6,690.2 L 701.8,793.9 L 770.7,656.7 L 941.3,621.8 L 805.9,595.8 Z" fill="#000000"/>
  <path d="M 939.9,452.3 L 779.3,544.0 L 765.7,439.3 L 708.0,580.4 L 420.9,589.7 L 666.3,633.3 L 541.2,773.5 L 680.3,691.7 L 700.0,798.6 L 771.1,657.1 L 947.0,621.2 L 807.4,594.4 Z" fill="#000000"/>
  <path d="M 945.6,446.4 L 780.0,541.0 L 766.0,433.0 L 706.5,578.5 L 410.5,588.1 L 663.5,633.0 L 534.5,777.6 L 677.9,693.2 L 698.3,803.4 L 771.6,657.6 L 952.9,620.5 L 809.0,592.9 Z" fill="#e8e1ce"/>
  <path d="M 945.6,446.4 L 780.0,541.0 L 766.0,433.0 L 706.5,578.5 L 410.5,588.1 L 663.5,633.0 L 534.5,777.6 L 677.9,693.2 L 698.3,803.4 L 771.6,657.6 L 952.9,620.5 L 809.0,592.9 Z M 923.8,463.1 L 734.9,615.4 L 804.6,596.0 L 933.4,618.7 L 734.7,619.7 L 766.2,657.8 L 731.0,620.9 L 697.5,791.6 L 682.1,688.2 L 726.7,623.0 L 550.4,762.6 L 668.7,633.1 L 728.2,617.7 L 444.7,589.3 L 705.4,583.4 L 727.7,612.1 L 710.8,576.6 L 763.0,449.0 L 733.3,614.7 L 778.7,546.8 Z" fill="#000000" fill-rule="evenodd"/>
</svg>
