<?xml version="1.0" encoding="UTF-8"?>
<svg xmlns="http://www.w3.org/2000/svg" viewBox="392.5 320.3 607.8 607.8" width="512" height="512">
  <title>Parallax Data</title>

  <path d="M 917.8,468.4 L 776.5,546.4 L 766.0,433.0 L 708.5,581.8 L 467.8,593.3 L 673.5,630.6 L 555.0,760.8 L 681.5,688.1 L 698.4,802.7 L 770.2,656.2 L 939.6,620.3 L 801.8,595.1 Z M 898.9,482.9 L 734.5,615.6 L 797.9,597.9 L 921.2,618.6 L 734.5,619.6 L 765.1,656.5 L 731.0,620.9 L 697.7,790.5 L 685.3,683.5 L 727.0,622.6 L 569.4,747.2 L 677.9,630.7 L 728.6,617.6 L 495.7,594.3 L 707.8,586.5 L 728.0,612.5 L 712.3,579.6 L 763.0,449.0 L 733.1,614.9 L 775.0,552.1 Z" fill="#e8e1ce" fill-rule="evenodd"/>
  <path d="M 970.1,426.8 L 930.5,448.6 L 927.6,416.9 L 911.5,458.5 L 844.1,461.8 L 901.7,472.2 L 868.5,508.7 L 903.9,488.3 L 908.7,520.4 L 928.8,479.4 L 976.2,469.3 L 937.6,462.3 Z" fill="#e8e1ce" fill-rule="nonzero"/>
  <path d="M 829.4,411.8 L 784.7,418.8 L 792.8,387.9 L 763.5,421.6 L 699.0,401.6 L 749.6,431.1 L 705.9,454.0 L 746.2,447.0 L 739.6,478.7 L 772.6,447.1 L 820.6,453.8 L 786.7,434.0 Z" fill="#ff2a00" fill-rule="nonzero"/>
  <path d="M 534.6,595.0 L 490.3,586.3 L 508.4,560.1 L 469.3,581.7 L 415.6,540.8 L 453.0,585.9 L 404.2,592.5 L 444.4,599.6 L 427.4,627.3 L 469.2,608.8 L 511.9,631.6 L 486.9,601.3 Z" fill="#e8e1ce" fill-rule="nonzero"/>
  <path d="M 617.2,785.3 L 578.5,761.9 L 604.5,743.5 L 560.4,750.4 L 523.9,693.7 L 543.7,748.8 L 495.5,738.3 L 530.8,758.8 L 505.4,778.9 L 551.0,775.8 L 583.4,811.8 L 570.2,774.9 Z" fill="#ff2a00" fill-rule="nonzero"/>
  <path d="M 748.5,847.0 L 720.1,811.8 L 750.8,803.4 L 707.0,794.8 L 692.1,729.0 L 691.9,787.5 L 650.2,761.2 L 676.4,792.5 L 645.6,802.7 L 689.5,815.4 L 707.6,860.4 L 707.9,821.2 Z" fill="#e8e1ce" fill-rule="nonzero"/>
  <path d="M 971.5,679.0 L 956.9,636.3 L 988.6,638.9 L 950.4,615.8 L 958.9,548.9 L 938.6,603.8 L 908.5,564.8 L 922.4,603.2 L 890.0,602.3 L 926.9,629.2 L 928.5,677.7 L 942.2,640.9 Z" fill="#ff2a00" fill-rule="nonzero"/>
</svg>
